<svg width="100" height="85" viewBox="0 0 100 85" fill="none" xmlns="http://www.w3.org/2000/svg">
<g clip-path="url(#clip0_16_135)">
<path d="M97.9021 0H2.09791C0.939863 0 0 0.798884 0 1.78322V83.2159C0 84.2002 0.939863 84.9991 2.09791 84.9991H52.9984V56.5968H42.2561C41.3278 56.5968 40.5757 55.9575 40.5757 55.1685V43.6542C40.5757 42.8651 41.3278 42.2249 42.2561 42.2249H52.9995V34.278C52.9995 23.8069 60.7565 17.0414 72.7607 17.0414L83.4475 17.0556C84.3737 17.0565 85.1258 17.6958 85.1258 18.484V29.1753C85.1258 29.9644 84.3737 30.6037 83.4454 30.6037L76.2464 30.6063C71.2859 30.6063 70.3775 32.2505 70.3775 35.4879V42.2249H82.9429C83.3888 42.2249 83.8157 42.3756 84.1314 42.644C84.4461 42.9124 84.6234 43.2753 84.6234 43.6542L84.6192 55.1694C84.6192 55.9584 83.8671 56.5986 82.9388 56.5986H70.3765V85H97.901C99.0591 85 99.999 84.2011 99.999 83.2168V1.78322C100 0.797992 99.0612 0 97.9021 0Z" fill="#4F5169"/>
</g>
<defs>
<clipPath id="clip0_16_135">
<rect width="100" height="85" fill="white"/>
</clipPath>
</defs>
</svg>
