<svg width="100" height="91" viewBox="0 0 100 91" fill="none" xmlns="http://www.w3.org/2000/svg">
<g clip-path="url(#clip0_16_194)">
<path d="M97.7332 16.7249C96.1622 17.3544 94.5471 17.8857 92.8968 18.317C94.8506 16.3207 96.3403 13.9717 97.2497 11.4013C97.4535 10.8251 97.2422 10.1944 96.718 9.8176C96.1945 9.44048 95.4671 9.39531 94.8906 9.70394C91.3858 11.5819 87.6045 12.9316 83.6397 13.7208C79.6458 10.195 74.2213 8.18848 68.6135 8.18848C56.7764 8.18848 47.1461 16.8887 47.1461 27.5826C47.1461 28.4248 47.2051 29.2624 47.3219 30.0884C32.6332 28.9232 18.9774 22.4006 9.59998 12.0083C9.26579 11.6379 8.75095 11.4383 8.22385 11.4764C7.69643 11.5137 7.22256 11.7825 6.95611 12.1954C5.05417 15.1439 4.04869 18.5161 4.04869 21.9471C4.04869 26.6203 5.89547 31.0542 9.15772 34.5187C8.16579 34.2084 7.20321 33.8205 6.2845 33.3597C5.79127 33.1117 5.18934 33.1155 4.69934 33.3693C4.20901 33.6232 3.90159 34.09 3.88869 34.6003C3.88643 34.6863 3.88643 34.7723 3.88643 34.8594C3.88643 41.8349 8.04192 48.1151 14.3951 51.538C13.8493 51.4887 13.3039 51.4173 12.7619 51.3238C12.2032 51.2273 11.6287 51.4042 11.2519 51.7892C10.8745 52.1739 10.7497 52.7101 10.9235 53.1997C13.2751 59.8328 19.3297 64.7117 26.649 66.1992C20.5784 69.6343 13.6361 71.4336 6.34837 71.4336C4.82772 71.4336 3.29837 71.3529 1.80159 71.1929C1.05805 71.1131 0.347078 71.5097 0.0938521 72.1485C-0.159374 72.7877 0.109013 73.5002 0.741594 73.8665C10.1039 79.2898 20.9293 82.1564 32.0471 82.1564C53.9032 82.1564 67.5758 72.8451 75.1968 65.0337C84.7 55.2937 90.1503 42.4015 90.1503 29.6631C90.1503 29.131 90.1413 28.5936 90.1232 28.0579C93.8726 25.5058 97.1006 22.4172 99.7274 18.8672C100.126 18.3281 100.083 17.6155 99.621 17.1192C99.1593 16.6226 98.39 16.462 97.7332 16.7249Z" fill="#51536A"/>
</g>
<defs>
<clipPath id="clip0_16_194">
<rect width="100" height="90.3448" fill="white"/>
</clipPath>
</defs>
</svg>
