<svg width="100" height="106" viewBox="0 0 100 106" fill="none" xmlns="http://www.w3.org/2000/svg">
<path d="M96.1022 22.0026C92.4926 17.4752 85.8281 15.6284 73.1003 15.6284H26.8987C13.8797 15.6284 7.10226 17.5943 3.50613 22.4145C0 27.1142 0 34.0388 0 43.6227V61.8895C0 80.4565 4.16 89.8835 26.8987 89.8835H73.1006C84.1381 89.8835 90.2542 88.2538 94.211 84.2583C98.2687 80.1611 100 73.4713 100 61.8895V43.6227C100 33.5157 99.7287 26.5502 96.1022 22.0026ZM64.2003 55.278L43.2203 66.8472C42.7513 67.1059 42.2384 67.2342 41.7261 67.2342C41.1461 67.2342 40.5674 67.0694 40.0548 66.742C39.0897 66.1249 38.5003 65.0212 38.5003 63.8306V40.7664C38.5003 39.5778 39.0881 38.4751 40.0513 37.8576C41.0148 37.2402 42.2132 37.198 43.2129 37.746L64.1929 49.2407C65.2603 49.8254 65.9306 50.9881 65.9323 52.2566C65.9335 53.5262 65.2661 54.6905 64.2003 55.278Z" fill="#52546B"/>
</svg>
